<svg width="620" height="618" viewBox="0 0 620 618" fill="none" xmlns="http://www.w3.org/2000/svg">
<g clip-path="url(#clip0_1_5)">
<path d="M309.963 181.276C330.166 201.351 350.389 225.645 370.529 246.28C374.521 241.267 380.137 235.532 384.572 230.757L410.058 203.315L468.962 266.727C478.402 276.869 488.543 288.228 498.193 298.052L498.905 298.316C499.369 301.09 499.802 315.55 498.805 317.422L485.495 317.348C465.851 317.933 443.951 317.453 424.133 317.448C424.017 325.495 424.059 333.543 424.27 341.585C449.968 341.353 475.67 341.384 501.368 341.674L501.452 360.69L424.064 360.727C424.033 368.78 424.112 376.827 424.296 384.88C434.88 384.969 445.464 384.974 456.048 384.89L456.021 403.669C400.962 404.491 344.182 403.769 288.984 403.774L209.563 403.806C194.692 403.811 178.771 404.085 163.998 403.658L164.03 384.932L195.92 384.938L195.99 360.727C170.347 360.448 144.214 360.738 118.511 360.685L118.637 341.606C143.925 341.157 170.582 341.453 195.907 341.553C195.873 333.601 195.725 325.321 195.91 317.395L185.494 317.453L176.869 317.353C167.317 317.606 157.166 317.422 147.571 317.401L141.543 317.438L137.652 317.427L131.342 317.443C128.17 317.432 124.998 317.39 121.827 317.306C123.653 316.942 124.791 317.042 127.146 316.478C127.642 313.256 127.906 295.328 126.84 292.638C127.676 291.48 133.045 285.93 134.363 284.52L150.929 266.798C170.451 245.867 190.668 224.488 209.783 203.282C218.823 212.972 229.167 224.72 238.455 233.869L239.551 235.218L249.663 246.19C267.105 226.495 285.844 207.69 303.461 188.122C305.37 186.002 307.859 183.142 309.963 181.276ZM395.271 247.319C391.58 251.744 387.398 255.96 383.406 260.128C394.828 272.461 407.917 285.866 418.886 298.342L435.281 298.184L440.971 298.263L445.343 298.395C448.454 298.374 451.687 298.305 454.793 298.348C457.298 298.29 459.592 298.237 462.107 298.316C465.392 298.247 468.678 298.247 471.963 298.316C470.17 295.534 457.656 282.607 454.492 279.164C439.8 263.158 424.587 247.453 410.095 231.251C406.277 235.912 400.065 242.689 395.667 246.82L395.271 247.319ZM309.889 209.189C295.096 225.942 278.002 243.956 262.597 260.22C268.158 266.123 307.052 309.121 310.316 310.746C325.725 294.102 342.194 276.909 357.261 260.097L309.889 209.189ZM249.556 274.145C239.603 285.927 225.772 299.898 215.07 311.442C214.935 335.958 214.94 360.469 215.087 384.985L404.969 384.938L405.027 354.584L405.017 311.579C393.995 299.033 381.677 286.607 370.381 274.126C357.756 287.926 345.058 301.659 332.286 315.323C325.166 322.959 317.43 331.765 310.111 339.043C303.018 332.124 295.169 323.275 288.33 315.908L249.556 274.145ZM201.318 298.337C204.035 294.788 210.173 288.559 213.526 284.96L236.62 260.297C228.215 250.806 218.524 240.777 209.843 231.377C202.064 240.922 150.249 293.886 148.51 298.348C151.412 298.311 155.022 298.158 157.864 298.247L169.295 298.2L185.993 298.205L201.318 298.337Z" fill="black"/>
<path d="M169.295 298.2L185.993 298.205C185.92 304.623 185.754 311.041 185.494 317.453L176.869 317.353C167.317 317.606 157.166 317.422 147.571 317.401L141.543 317.438C141.436 311.463 141.691 304.576 141.768 298.527L148.51 298.348C151.412 298.311 155.022 298.158 157.864 298.247L169.295 298.2Z" fill="black"/>
<path d="M169.295 298.2L185.993 298.205C185.92 304.623 185.754 311.041 185.494 317.453L176.869 317.353C173.841 316.726 170.606 316.984 167.5 317.084C162.878 308.995 163.936 305.356 169.295 298.2Z" fill="black"/>
<path d="M173.818 303.542C180.405 304.148 181.223 308.979 176.971 313.287C169.979 313.456 169.663 307.645 173.818 303.542Z" fill="black"/>
<path d="M157.864 298.247L169.295 298.2C163.936 305.356 162.878 308.995 167.5 317.084C170.606 316.984 173.841 316.726 176.869 317.353C167.317 317.606 157.166 317.422 147.571 317.401C148.59 314.954 147.329 305.868 148.996 304.697C157.636 298.638 155.572 315.18 155.538 317.147C157.618 317.042 159.81 317.047 161.9 317.021C161.964 308.61 163.44 304.275 157.864 298.247Z" fill="black"/>
<path d="M498.193 298.052L498.905 298.316C499.369 301.09 499.802 315.55 498.805 317.422L485.495 317.348C483.818 316.483 481.065 317.348 479.251 314.289C477.954 312.064 478.101 308.504 478.46 305.978C480.053 294.64 487.979 300.309 492.609 300.278C494.976 298.58 495.319 298.284 498.193 298.052Z" fill="black"/>
<path d="M487.81 303.605C494.37 303.974 494.28 309.448 489.988 313.519C483.222 312.686 482.441 307.344 487.81 303.605Z" fill="black"/>
<path d="M131.248 298.49L137.732 298.564C137.626 304.855 137.6 311.141 137.652 317.427L131.342 317.443C131.214 311.125 131.183 304.808 131.248 298.49Z" fill="black"/>
<path d="M238.455 233.869L239.551 235.218C238.195 237.282 229.074 246.95 227.155 247.521L226.755 246.844C227.902 243.164 235.617 237.593 238.455 233.869Z" fill="black"/>
<path d="M462.107 298.316C465.392 298.247 468.678 298.247 471.963 298.316C473.25 300.995 475.048 302.951 476.804 306.732C471.8 306.39 471.014 307.429 467.328 304.027C462.771 303.605 461.458 308.562 463.526 312.022C467.243 314.389 471.641 310.039 475.554 310.651L476.008 311.526C475.412 313.862 474.304 315.001 472.854 316.921C468.446 316.884 464.127 317.047 459.723 317.2C454.16 309.148 455.394 304.871 462.107 298.316Z" fill="black"/>
<path d="M435.281 298.184L440.971 298.263C444.341 306.221 455.294 302.835 453.891 312.923C453.132 318.376 442.427 317.96 438.793 316.741C436.589 315.998 435.355 312.57 434.464 310.651C437.311 310.556 439.858 309.981 442.094 312.201C443.729 313.815 444.262 314.152 446.223 313.609C447.341 312.175 447.094 312.955 447.078 311.215C441.831 304.475 435.534 310.007 435.292 298.996L435.281 298.184Z" fill="black"/>
<path d="M377.168 385.555C378.502 385.46 378.929 385.57 380.269 385.755C379.989 387.564 366.953 399.898 364.643 402.171C363.32 402.493 363.821 402.482 362.492 402.134C362.724 399.988 374.637 388.465 377.168 385.555Z" fill="black"/>
<path d="M395.271 247.319C392.155 246.71 384.282 237.853 382.462 235.004L382.868 234.436C385.616 235.061 394.897 244.073 395.667 246.82L395.271 247.319Z" fill="black"/>
<path d="M134.127 290.098C135.824 290.396 135.73 290.374 137.232 291.228C139.343 294.654 137.31 295.448 134.494 296.897C131.695 296.139 130.678 295.045 131.136 292.161C132.609 290.34 131.721 291.095 134.127 290.098Z" fill="black"/>
<path d="M202.957 347.327C206.504 348.229 212.999 354.921 214.283 358.249C211.222 357.605 204.407 350.075 202.957 347.327Z" fill="black"/>
<path d="M445.343 298.395C448.454 298.374 451.687 298.305 454.793 298.348C452.114 301.886 448.333 300.963 445.343 298.395Z" fill="black"/>
<path d="M302.069 97.0643C307.817 96.9936 316.36 96.6466 321.797 97.6412C340.939 100.347 358.595 111.565 370.101 126.982C381.903 142.793 386.897 162.662 383.986 182.175C382.04 195.573 377.131 206.098 369.342 216.986L355.895 202.712C377.569 167.129 361.063 127.077 320.731 116.766L317.093 116.334C314.097 115.869 309.689 115.956 306.525 115.925L302.543 116.284C294.268 118.016 288.431 119.563 281.025 124.079C268.31 131.927 259.273 144.546 255.938 159.11C252.315 174.895 255.599 189.12 264.136 202.619C261.989 205.613 253.76 214.031 250.908 216.953C242.96 207.447 237.531 193.368 236.007 181.129C233.383 161.361 238.801 141.367 251.046 125.628C263.915 109.172 281.444 99.6482 302.069 97.0643Z" fill="#FF9500"/>
<path d="M209.502 428.159L410.253 428.122C410.311 433.469 410.649 441.97 410.317 447.053C384.134 446.568 356.259 447.67 330.392 446.79L330.05 446.721C327.455 447.206 324.138 446.916 321.48 446.732H321.232C317.715 447.285 310.57 446.922 306.815 446.769L306.467 446.726C301.035 447.285 295.107 446.958 289.629 447.006C263.017 447.243 236.075 446.447 209.486 446.995C209.523 441.305 209.779 433.685 209.502 428.159Z" fill="black"/>
<path d="M301.272 433.474C313.375 433.416 331.426 429.24 330.435 446.167L330.392 446.79L330.05 446.721C327.455 447.206 324.138 446.916 321.48 446.732H321.232C317.715 447.285 310.57 446.921 306.815 446.769L306.467 446.726C304.226 446.637 303.593 446.689 301.483 446.072L300.829 445.255C302.253 443.061 303.102 442.571 303.213 439.934C300.281 437.904 301.156 437.203 301.272 433.474Z" fill="black"/>
<path d="M306.815 446.769C306.588 445.397 305.908 443.098 306.883 442.138C311.698 437.419 316.455 439.586 315.426 446.336C317.146 446.473 319.666 446.537 321.232 446.732C317.715 447.285 310.57 446.921 306.815 446.769Z" fill="black"/>
<path d="M321.48 446.732C320.737 443.684 320.267 442.872 318.522 440.256L318.891 439.723C324.613 439.296 324.982 440.82 325.114 446.099L325.936 446.853C327.766 446.521 328.23 446.447 330.05 446.721C327.455 447.206 324.138 446.916 321.48 446.732Z" fill="black"/>
<path d="M301.225 471.211L321.021 471.232L364.997 471.316L364.976 490.216C351.386 489.621 334.991 490.069 321.159 490.09L300.935 490.074L296.448 490.179L295.445 490.29C285.903 489.61 264.745 489.868 255.076 490.296L255.074 471.327C269.977 470.942 286.222 471.237 301.225 471.211Z" fill="black"/>
<path d="M301.283 481.489C307.532 481.505 314.873 481.357 321 481.789L321.159 490.09L300.935 490.074C301.098 487.305 301.357 484.236 301.283 481.489Z" fill="black"/>
<path d="M301.225 471.211L321.021 471.232L320.995 477.75C314.445 477.913 307.896 477.956 301.352 477.871C301.204 475.709 301.241 473.394 301.225 471.211Z" fill="black"/>
<path d="M295.445 490.29C293.77 487.654 292.542 486.098 292.903 482.95C295.54 479.928 302.206 483.203 297.412 489.678L296.448 490.179L295.445 490.29Z" fill="black"/>
<path d="M126.84 292.638C127.906 295.328 127.642 313.256 127.146 316.478C124.791 317.042 123.653 316.942 121.827 317.306L121.496 317.332C111.389 317.722 99.7133 317.443 89.4902 317.443L83.672 317.438L78.8605 317.459C77.0448 317.48 74.9893 317.675 73.3534 317.031C72.8134 312.929 73.1256 303.015 73.1662 298.39C75.0241 298.253 77.3402 298.253 79.2418 298.195L83.3107 298.211C88.4713 298.211 94.3607 298.079 99.4691 298.216L110.164 298.305C113.281 298.068 118.582 298.263 121.863 298.279C123.509 296.386 125.168 294.507 126.84 292.638Z" fill="black"/>
<path d="M126.84 292.638C127.906 295.328 127.642 313.256 127.146 316.478C124.791 317.042 123.653 316.942 121.827 317.306L121.496 317.332C118.707 316.657 112.095 316.884 108.904 316.868C103.873 307.972 106.588 306.906 109.86 299.054L110.164 298.305C113.281 298.068 118.582 298.263 121.863 298.279C123.509 296.386 125.168 294.507 126.84 292.638Z" fill="black"/>
<path d="M115.988 303.458C122.694 305.694 122.694 309.475 117.664 313.757C110.947 312.981 111.686 307.297 115.988 303.458Z" fill="black"/>
<path d="M99.4691 298.216L110.164 298.305L109.86 299.054C106.588 306.906 103.873 307.972 108.904 316.868C112.095 316.884 118.707 316.657 121.496 317.332C111.389 317.722 99.7133 317.443 89.4902 317.443C89.4174 313.229 88.4708 304.433 93.5412 302.772C98.1644 304.792 97.5216 312.987 97.4335 317.042C99.3937 316.989 101.378 317.053 103.341 317.089C103.443 309.084 104.638 304.301 99.4691 298.216Z" fill="black"/>
<path d="M73.1662 298.39C75.0241 298.253 77.3402 298.253 79.2418 298.195C79.1727 303.468 79.3114 312.496 78.8605 317.459C77.0448 317.48 74.9893 317.675 73.3534 317.031C72.8134 312.929 73.1256 303.015 73.1662 298.39Z" fill="black"/>
<path d="M79.2418 298.195L83.3107 298.211C83.2501 301.327 82.7412 315.233 83.672 317.437L78.8605 317.459C79.3114 312.496 79.1727 303.468 79.2418 298.195Z" fill="black"/>
<path d="M518.359 298.284C521.301 298.263 524.74 298.158 527.635 298.258L535.656 298.269C539.089 298.205 543.038 297.641 545.992 298.733C547.289 300.262 546.835 300.146 546.899 302.746L546.92 313.846L546.798 316.399C544.357 318.571 539.479 317.385 536.172 317.432C527.208 317.437 514.129 317.828 505.465 317.253L503.862 317.564L498.805 317.422C499.802 315.55 499.369 301.09 498.905 298.316L503.493 298.279L509.389 298.274L518.359 298.284Z" fill="black"/>
<path d="M518.359 298.284C521.301 298.263 524.74 298.158 527.635 298.258C529.633 300.462 533.24 305.003 532.681 308.125C528.858 311.906 519.688 306.469 518.775 312.201C521.238 314.954 526.675 311.115 531.558 311.584L532.033 312.206C530.34 318.824 521.402 316.921 516.075 316.947C510.069 309.612 511.746 304.185 518.359 298.284Z" fill="black"/>
<path d="M522.672 303.141C524.539 303.8 525.462 304.201 526.19 306.036C525.077 307.307 525.256 306.901 523.073 307.233C521.185 307.107 520.015 307.365 519.097 305.73C519.904 304.254 521.122 303.911 522.672 303.141Z" fill="black"/>
<path d="M535.656 298.269C539.089 298.205 543.038 297.641 545.992 298.733C547.289 300.262 546.835 300.146 546.899 302.746L546.92 313.846L546.798 316.399C544.357 318.571 539.479 317.385 536.172 317.432C535.134 315.602 535.619 301.211 535.656 298.269Z" fill="black"/>
<path d="M546.92 313.846C539.6 311.099 540.571 306.142 546.899 302.746L546.92 313.846Z" fill="black"/>
<path d="M498.905 298.316L503.493 298.279L509.389 298.274C509.468 301.538 509.927 313.946 509.515 316.525C508.751 316.652 505.924 317.053 505.465 317.253L503.862 317.564L498.805 317.422C499.802 315.55 499.369 301.09 498.905 298.316Z" fill="black"/>
<path d="M498.905 298.316L503.493 298.279C503.461 301.702 503.14 314.922 503.862 317.564L498.805 317.422C499.802 315.55 499.369 301.09 498.905 298.316Z" fill="black"/>
<path d="M287.364 514.332C302.448 514.095 317.536 514.068 332.618 514.253C332.729 520.67 332.75 527.094 332.676 533.511C327.302 533.559 321.929 533.506 316.555 533.353C313.781 533.543 310.011 533.448 307.142 533.448L287.343 533.58C287.303 527.162 287.31 520.75 287.364 514.332Z" fill="black"/>
<path d="M305.649 514.891C311.013 514.527 315.706 514.654 321.053 514.759L320.879 522.137C316.713 522.326 305.945 520.992 306.045 526.672C308.545 531.555 317.04 529.155 320.932 531.449C320.473 533.316 318.264 533.179 316.555 533.353C313.781 533.543 310.011 533.448 307.142 533.448L306.667 533.348C304.5 532.915 303.519 532.879 301.304 532.821C302.628 527.937 304.816 531.328 301.647 526.044C299.363 522.231 303.572 517.886 305.649 514.891Z" fill="black"/>
<path d="M146.627 162.358L148.382 160.619C149.745 164.171 149.11 181.412 149.327 186.687L147.282 188.861L36.779 299.318C33.6608 302.408 30.2404 305.963 27.0463 308.91L35.7032 317.801C57.3976 338.299 80.5153 362.51 101.817 383.788L131.716 413.683C135.878 417.844 142.935 424.462 146.686 428.702L149.088 431.043C149.159 435.494 149.841 454.362 148.298 457.068L147.306 456.271L9.69197 318.687L5.15313 313.999L0.80465 309.991L0.496674 308.995L1.342 307.639L6.02324 302.978L9.9087 298.98C25.5645 283.846 41.3611 267.649 56.8012 252.219L146.627 162.358Z" fill="black"/>
<path d="M19.653 292.192C21.5066 292.536 23.7409 292.558 25.652 292.644C25.5819 294.852 25.2259 297.261 26.1899 299.165C29.5533 300.241 29.797 297.562 36.1789 299.165L36.779 299.318C33.6608 302.408 30.2405 305.962 27.0463 308.91L35.7032 317.801C32.0508 319.336 28.3905 317.153 24.4423 318.091C22.8624 318.471 21.0721 318.424 19.4278 318.445C19.3577 309.696 19.4331 300.942 19.653 292.192Z" fill="black"/>
<path d="M9.9087 298.98C15.2016 300.52 15.9215 304.496 16.9735 309.501C12.0571 309.691 5.58238 310.097 0.80465 309.991L0.496674 308.995L1.342 307.639L6.02324 302.978L9.9087 298.98Z" fill="black"/>
<path d="M1.34201 307.639L6.02325 302.978C7.64061 303.811 8.98322 304.206 9.72045 305.783C8.22701 307.476 4.08367 307.154 1.34201 307.639Z" fill="black"/>
<path d="M146.627 162.358L148.382 160.619C149.745 164.171 149.11 181.412 149.327 186.687L147.282 188.861C146.321 182.942 146.583 168.836 146.627 162.358Z" fill="black"/>
<path d="M146.686 428.702L149.088 431.043C149.159 435.494 149.842 454.362 148.298 457.068L147.306 456.271C146.281 449.527 146.595 435.921 146.686 428.702Z" fill="black"/>
<path d="M5.15314 313.999C9.39509 312.322 10.9666 310.687 15.2839 311.848L15.8772 312.586C15.6805 314.258 14.3737 315.46 13.0749 316.462C12.0038 317.29 10.8732 318.033 9.69198 318.687L5.15314 313.999Z" fill="black"/>
<path d="M306.588 2.44295C307.769 1.18049 308.608 -0.107808 310.216 -0.390991L311.271 0.377349C314.54 3.54247 317.762 6.76084 320.927 10.0304L457.197 146.214L458.073 147.329C455.104 148.901 436.077 148.039 431.816 147.818L430.15 146.315C417.457 133.064 403.661 119.666 390.652 106.662L319.708 35.7315L315.437 31.4263C313.523 29.5663 311.703 27.6062 309.863 25.6661C308.096 28.3535 305.191 30.9522 302.833 33.2625L227.334 108.797C215.843 120.29 201.587 135.422 189.857 146.236C187.961 145.317 168.632 145.647 163.823 145.159L302.011 6.96387L306.588 2.44295Z" fill="black"/>
<path d="M302.833 33.2625C301.014 26.628 304.315 28.0228 304.067 24.2792C302.638 22.9123 302.053 22.5411 301.441 20.5677C301.932 18.7104 301.452 19.4577 302.934 18.2448C306.894 17.5751 323.031 17.2566 327.582 18.8628C328.684 19.2526 328.452 20.5161 328.562 21.9098C327.091 25.057 324.333 24.1131 321.074 23.9602L320.6 24.5534C321.565 29.2763 322.656 31.4917 319.708 35.7315L315.437 31.4263C313.523 29.5663 311.703 27.6062 309.863 25.6661C308.096 28.3535 305.191 30.9522 302.833 33.2625Z" fill="black"/>
<path d="M309.863 25.6661C312.273 21.9199 318.749 25.4209 315.437 31.4263C313.523 29.5664 311.703 27.6062 309.863 25.6661Z" fill="black"/>
<path d="M311.271 0.37735C314.54 3.54247 317.762 6.76084 320.927 10.0304C318.063 15.0591 316.47 14.7237 311.06 14.979C310.976 9.85371 310.865 5.50999 311.271 0.37735Z" fill="black"/>
<path d="M430.15 146.315C435.819 145.637 451.866 145 457.197 146.214L458.073 147.329C455.104 148.901 436.077 148.039 431.816 147.818L430.15 146.315Z" fill="black"/>
<path d="M302.011 6.96385L306.588 2.44293C307.817 9.7303 309.346 6.52194 309.024 15.3407C304.51 12.1988 303.63 12.059 302.011 6.96385Z" fill="black"/>
<path d="M474.368 163.444L609.605 298.601C612.795 301.786 616.893 306.11 620.242 308.958L614.367 314.648C599.158 330.558 582.442 346.7 566.816 362.32L474.362 454.774L472.538 456.503C471.23 453.592 471.689 434.666 471.72 430.273L473.767 428.085L586.086 315.866L593.004 308.984C589.867 305.915 586.782 302.793 583.755 299.624C557.556 274.905 532.555 247.791 506.641 222.632C495.678 211.988 483.754 200.365 473.334 189.246C474.811 186.382 473.767 168.875 474.368 163.444Z" fill="black"/>
<path d="M614.367 314.648C611.656 311.906 615.068 307.703 611.166 304.122C609.431 303.647 609.183 303.4 607.464 303.901C603.235 308.494 608.477 315.55 603.277 318.598C601.199 318.603 600.888 318.983 599.522 318.012C598.921 314.184 598.362 300.299 601.136 297.81C602.892 298.052 604.632 299.84 606.088 301.042C607.475 299.924 608.07 299.55 609.605 298.601C612.795 301.786 616.893 306.11 620.242 308.958L614.367 314.648Z" fill="black"/>
<path d="M583.755 299.624L584.799 299.666C588.933 299.824 590.41 298.596 594.544 298.675C595.715 301.57 595.567 314.616 594.992 318.081C591.955 319.6 588.754 317.438 586.086 315.866L593.004 308.984C589.867 305.915 586.782 302.793 583.755 299.624Z" fill="black"/>
<path d="M471.72 430.273L473.767 428.085C474.637 436.796 473.656 445.814 474.362 454.774L472.538 456.503C471.23 453.592 471.689 434.666 471.72 430.273Z" fill="black"/>
<path d="M431.822 470.198C436.568 470.494 455.125 470.077 457.524 471.543L455.679 473.273C429.776 500.178 401.71 527.421 375.227 553.914L339.974 589.183C333.862 595.29 326.859 602.657 320.568 608.389L316.455 612.629L312.368 616.89L311.171 617.765C310.77 618.271 311.076 617.95 310.016 618.435C308.212 617.565 306.367 615.371 304.916 613.857L300.814 609.807L164.353 473.199C170.268 473.426 185.132 473.283 190.826 472.793L267.169 549.173L290.363 572.308C292.765 574.702 299.806 581.452 301.694 583.82C304.331 586.172 307.49 589.478 310.058 592.015C313.032 588.898 316.228 585.755 319.271 582.676L429.159 472.851L431.822 470.198Z" fill="black"/>
<path d="M319.271 582.676C323.189 587.617 320.51 588.724 319.418 592.959C319.239 593.66 322.308 596.756 320.789 599.609C316.244 600.468 300.144 600.147 295.006 600.036C294.873 598.116 294.481 596.213 295.414 594.615C298.177 592.932 300.919 594.14 304.489 594.288C301.937 590.813 299.938 588.318 301.694 583.82C304.331 586.172 307.49 589.478 310.058 592.015C313.032 588.898 316.228 585.755 319.271 582.676Z" fill="black"/>
<path d="M300.814 609.807C304.616 604.624 305.533 603.775 311.978 602.709C312.183 606.844 312.663 612.913 312.368 616.89L311.171 617.765C310.77 618.271 311.076 617.95 310.016 618.435C308.212 617.565 306.367 615.371 304.916 613.857L300.814 609.807Z" fill="black"/>
<path d="M304.916 613.857C305.839 612.059 306.055 611.273 307.717 610.097L309.035 610.082C310.759 612.27 308.603 615.413 311.171 617.765C310.77 618.271 311.076 617.95 310.016 618.435C308.212 617.565 306.367 615.371 304.916 613.857Z" fill="black"/>
<path d="M431.822 470.198C436.568 470.494 455.125 470.077 457.524 471.543L455.679 473.273C449.82 473.257 434.052 473.463 429.159 472.851L431.822 470.198Z" fill="black"/>
<path d="M316.455 612.629C314.424 610.488 312.99 607.134 314.493 604.371L315.632 604.081C317.842 604.856 318.965 606.575 320.568 608.389L316.455 612.629Z" fill="black"/>
<path d="M149.088 431.043C162.407 444.369 175.802 458.027 189.24 471.2L190.826 472.793C185.132 473.283 170.268 473.426 164.353 473.199L162.724 471.643C158.023 466.987 152.677 461.946 148.298 457.068C149.842 454.362 149.159 435.494 149.088 431.043Z" fill="black"/>
<path d="M162.724 471.643C166.388 469.85 184.485 470.209 189.24 471.2L190.826 472.793C185.132 473.283 170.268 473.426 164.353 473.199L162.724 471.643Z" fill="black"/>
<path d="M458.073 147.329C462.149 150.903 468.34 157.128 472.095 161.169L474.368 163.444C473.767 168.875 474.811 186.382 473.334 189.246L471.663 187.761C459.212 174.615 444.721 160.729 431.816 147.818C436.077 148.039 455.104 148.901 458.073 147.329Z" fill="black"/>
<path d="M472.095 161.169L474.368 163.444C473.767 168.875 474.811 186.382 473.334 189.246L471.663 187.761C471.847 179.388 471.499 169.326 472.095 161.169Z" fill="black"/>
<path d="M161.207 147.814L163.823 145.159C168.632 145.647 187.961 145.317 189.857 146.236L188.158 147.942C175.353 160.755 162.322 174.127 149.327 186.687C149.11 181.412 149.745 164.171 148.382 160.619C151.035 157.524 158.046 150.955 161.207 147.814Z" fill="black"/>
<path d="M161.207 147.814L163.823 145.159C168.632 145.647 187.961 145.317 189.857 146.236L188.158 147.942C182.945 148.215 166.102 148.437 161.207 147.814Z" fill="black"/>
<path d="M431.822 470.198L471.721 430.273C471.689 434.666 471.23 453.592 472.538 456.503C467.639 461.619 462.629 466.634 457.524 471.543C455.125 470.077 436.568 470.494 431.822 470.198Z" fill="black"/>
</g>
<defs>
<clipPath id="clip0_1_5">
<rect width="620" height="618" fill="white"/>
</clipPath>
</defs>
</svg>
